<svg width="200" height="80" version="1.1" viewBox="0 0 200 80" xmlns="http://www.w3.org/2000/svg">
	<defs>
		<clipPath id="u">
			<path d="m-40.116-390.39h793.71v1122.5h-793.71z" stroke-width="1.3333"/>
		</clipPath>
		<clipPath id="t">
			<path d="m-40.116-390.39h793.71v1122.5h-793.71z" stroke-width="1.3333"/>
		</clipPath>
		<clipPath id="s">
			<path d="m-40.116-390.39h793.71v1122.5h-793.71z" stroke-width="1.3333"/>
		</clipPath>
		<clipPath id="r">
			<path d="m-40.116-390.39h793.71v1122.5h-793.71z" stroke-width="1.3333"/>
		</clipPath>
		<clipPath id="q">
			<path d="m-40.116-390.39h793.71v1122.5h-793.71z" stroke-width="1.3333"/>
		</clipPath>
		<clipPath id="p">
			<path d="m-40.116-390.39h793.71v1122.5h-793.71z" stroke-width="1.3333"/>
		</clipPath>
		<clipPath id="o">
			<path d="m-40.116-390.39h793.71v1122.5h-793.71z" stroke-width="1.3333"/>
		</clipPath>
		<clipPath id="n">
			<path d="m-40.116-390.39h793.71v1122.5h-793.71z" stroke-width="1.3333"/>
		</clipPath>
		<clipPath id="m">
			<path d="m-40.116-390.39h793.71v1122.5h-793.71z" stroke-width="1.3333"/>
		</clipPath>
		<clipPath id="l">
			<path d="m-40.116-390.39h793.71v1122.5h-793.71z" stroke-width="1.3333"/>
		</clipPath>
		<clipPath id="k">
			<path d="m-40.116-390.39h793.71v1122.5h-793.71z" stroke-width="1.3333"/>
		</clipPath>
		<clipPath id="j">
			<path d="m-40.116-390.39h793.71v1122.5h-793.71z" stroke-width="1.3333"/>
		</clipPath>
		<clipPath id="i">
			<path d="m-40.116-390.39h793.71v1122.5h-793.71z" stroke-width="1.3333"/>
		</clipPath>
		<clipPath id="h">
			<path d="m-40.116-390.39h793.71v1122.5h-793.71z" stroke-width="1.3333"/>
		</clipPath>
		<clipPath id="g">
			<path d="m-40.116-390.39h793.71v1122.5h-793.71z" stroke-width="1.3333"/>
		</clipPath>
		<clipPath id="f">
			<path d="m-40.116-390.39h793.71v1122.5h-793.71z" stroke-width="1.3333"/>
		</clipPath>
		<clipPath id="e">
			<path d="m-40.116-390.39h793.71v1122.5h-793.71z" stroke-width="1.3333"/>
		</clipPath>
		<clipPath id="d">
			<path d="m-40.116-390.39h793.71v1122.5h-793.71z" stroke-width="1.3333"/>
		</clipPath>
		<clipPath id="c">
			<path d="m-40.116-390.39h793.71v1122.5h-793.71z" stroke-width="1.3333"/>
		</clipPath>
		<clipPath id="b">
			<path d="m-40.116-390.39h793.71v1122.5h-793.71z" stroke-width="1.3333"/>
		</clipPath>
		<clipPath id="a">
			<path d="m-40.116-390.39h793.71v1122.5h-793.71z" stroke-width="1.3333"/>
		</clipPath>
		<clipPath id="z">
			<path d="m-40.116-390.39h793.71v1122.5h-793.71z" stroke-width="1.3333"/>
		</clipPath>
		<clipPath id="y">
			<path d="m-40.116-390.39h793.71v1122.5h-793.71z" stroke-width="1.3333"/>
		</clipPath>
		<clipPath id="x">
			<path d="m-40.116-390.39h793.71v1122.5h-793.71z" stroke-width="1.3333"/>
		</clipPath>
		<clipPath id="w">
			<path d="m-40.116-390.39h793.71v1122.5h-793.71z" stroke-width="1.3333"/>
		</clipPath>
		<clipPath id="v">
			<path d="m-40.116-390.39h793.71v1122.5h-793.71z" stroke-width="1.3333"/>
		</clipPath>
	</defs>
	<g transform="matrix(.27794 0 0 .27794 .64163 -5.8972)" fill="#2fbdbd">
		<path transform="translate(-1)" d="m91.365 169.39h-14.419c-2.5427 0-4.604 2.0613-4.604 4.604v16.633c0 1.5533 0.776 3.0093 2.0707 3.8653 4.7987 3.1733 9.6547 6.2653 14.564 9.2787 3.056 1.8773 6.992-0.36 6.992-3.9467v-25.831c0-2.5427-2.0613-4.604-4.604-4.604" clip-path="url(#m)"/>
		<path transform="translate(-1)" d="m125.82 169.39h-14.419c-2.5427 0-4.604 2.0613-4.604 4.604v37.521c0 1.68 0.908 3.2347 2.3773 4.0493 4.808 2.664 9.6613 5.2547 14.561 7.768 3.0533 1.568 6.688-0.68534 6.688-4.1173v-45.221c0-2.5427-2.0613-4.604-4.604-4.604" clip-path="url(#k)"/>
		<path transform="translate(-1)" d="m160.27 169.39h-14.419c-2.5427 0-4.604 2.0613-4.604 4.604v54.952c0 1.8027 1.0467 3.4493 2.6853 4.2027 4.8147 2.212 9.6693 4.352 14.561 6.4187 3.0267 1.2787 6.38-0.97467 6.38-4.26v-61.313c0-2.5427-2.0613-4.604-4.604-4.604" clip-path="url(#y)"/>
		<path transform="translate(-1)" d="m194.72 169.39h-14.417c-2.544 0-4.6053 2.0613-4.6053 4.6053v69.277c0 1.924 1.1907 3.6573 2.9947 4.3307 4.82 1.8 9.6733 3.532 14.56 5.192 2.9787 1.012 6.072-1.232 6.072-4.3773v-74.424c0-2.5427-2.0613-4.604-4.604-4.604" clip-path="url(#u)"/>
		<path transform="translate(-1)" d="m229.17 169.39h-14.419c-2.5427 0-4.604 2.0613-4.604 4.604v80.773c0 2.044 1.3413 3.8547 3.3027 4.432 4.8253 1.4213 9.6787 2.7747 14.561 4.0587 2.912 0.76533 5.7627-1.4587 5.7627-4.4693v-84.795c0-2.5427-2.0613-4.604-4.604-4.604" clip-path="url(#g)"/>
		<path transform="translate(-1)" d="m263.63 169.39h-14.419c-2.5427 0-4.604 2.0613-4.604 4.604v89.64c0 2.1627 1.4987 4.0453 3.6093 4.5107 4.8293 1.0653 9.6813 2.068 14.56 2.9973 2.832 0.54 5.4573-1.656 5.4573-4.5387v-92.609c0-2.5427-2.0613-4.604-4.604-4.604" clip-path="url(#p)"/>
		<path transform="translate(-1)" d="m298.08 169.39h-14.419c-2.5427 0-4.604 2.0613-4.604 4.604v95.981c0 2.2813 1.6653 4.2347 3.9227 4.5707 4.8307 0.71733 9.6853 1.364 14.559 1.948 2.736 0.32666 5.1453-1.8307 5.1453-4.5867v-97.913c0-2.5427-2.0613-4.604-4.604-4.604" clip-path="url(#q)"/>
		<path transform="translate(-1)" d="m332.53 169.39h-14.419c-2.5427 0-4.604 2.0613-4.604 4.604v99.92c0 2.3987 1.8347 4.4093 4.2253 4.604 4.8347 0.392 9.6867 0.72 14.557 0.97866 2.632 0.14 4.844-1.9773 4.844-4.6133v-100.89c0-2.5427-2.0613-4.604-4.604-4.604" clip-path="url(#l)"/>
		<path transform="translate(-1)" d="m366.98 169.39h-14.417c-2.544 0-4.6053 2.0613-4.6053 4.6053v101.59c0 2.5107 2.008 4.5693 4.5173 4.6093 2.5307 0.0413 5.0653 0.064 7.604 0.064 2.3333 0 4.6613-0.0227 6.9853-0.0587 2.5107-0.04 4.52-2.0973 4.52-4.608v-101.6c0-2.5427-2.0613-4.604-4.604-4.604" clip-path="url(#t)"/>
		<path transform="translate(-1)" d="m401.44 169.39h-14.419c-2.5427 0-4.604 2.0613-4.604 4.604v100.92c0 2.6333 2.208 4.7493 4.8373 4.6133 4.8707-0.252 9.724-0.572 14.559-0.95867 2.392-0.19067 4.2307-2.204 4.2307-4.604v-99.969c0-2.5427-2.0613-4.604-4.604-4.604" clip-path="url(#o)"/>
		<path transform="translate(-1)" d="m435.89 169.39h-14.419c-2.5427 0-4.604 2.0613-4.604 4.604v97.991c0 2.7547 2.404 4.9107 5.1387 4.5867 4.8747-0.576 9.728-1.2173 14.56-1.928 2.26-0.33333 3.928-2.288 3.928-4.5707v-96.079c0-2.5427-2.0613-4.604-4.604-4.604" clip-path="url(#j)"/>
		<path transform="translate(-1)" d="m470.34 169.39h-14.419c-2.5427 0-4.604 2.0613-4.604 4.604v92.72c0 2.8813 2.6213 5.076 5.452 4.54 4.8773-0.924 9.7307-1.9187 14.559-2.9787 2.1147-0.46267 3.616-2.3467 3.616-4.512v-89.769c0-2.5427-2.0613-4.604-4.604-4.604" clip-path="url(#a)"/>
		<path transform="translate(-1)" d="m504.79 169.39h-14.419c-2.5427 0-4.604 2.0613-4.604 4.604v84.952c0 3.0093 2.8467 5.2333 5.7573 4.472 4.8827-1.2773 9.736-2.624 14.561-4.0387 1.9627-0.57467 3.308-2.388 3.308-4.4333v-80.952c0-2.5427-2.0613-4.604-4.604-4.604" clip-path="url(#z)"/>
		<path transform="translate(-1)" d="m539.25 169.39h-14.419c-2.5427 0-4.604 2.0613-4.604 4.604v74.632c0 3.1427 3.088 5.3867 6.0653 4.3787 4.888-1.652 9.7413-3.376 14.561-5.1693 1.8067-0.672 3-2.4067 3-4.3333v-69.508c0-2.5427-2.0613-4.604-4.604-4.604" clip-path="url(#s)"/>
		<path transform="translate(-1)" d="m573.7 169.39h-14.419c-2.5427 0-4.604 2.0613-4.604 4.604v61.575c0 3.2827 3.3493 5.5373 6.3747 4.2627 4.892-2.06 9.7467-4.192 14.561-6.3973 1.6413-0.75067 2.6907-2.4 2.6907-4.2053v-55.235c0-2.5427-2.0613-4.604-4.604-4.604" clip-path="url(#i)"/>
		<path transform="translate(-1)" d="m608.15 169.39h-14.419c-2.5427 0-4.604 2.0613-4.604 4.604v45.539c0 3.4293 3.6293 5.6827 6.6827 4.12 4.8987-2.5067 9.7533-5.0893 14.561-7.7453 1.472-0.812 2.3827-2.3693 2.3827-4.0507v-37.863c0-2.5427-2.0613-4.604-4.604-4.604" clip-path="url(#r)"/>
		<path transform="translate(-1)" d="m642.6 169.39h-14.419c-2.5427 0-4.604 2.0613-4.604 4.604v26.207c0 3.584 3.9307 5.8227 6.988 3.9507 4.908-3.0053 9.764-6.0893 14.563-9.2533 1.2973-0.856 2.076-2.3133 2.076-3.8693v-17.035c0-2.5427-2.0613-4.604-4.604-4.604" clip-path="url(#h)"/>
		<path transform="translate(-1)" d="m141.36 77.937c2.2853 0 3.6827 0.38133 4.3173 1.1427 0.50667 0.76267 0.38 2.2853-0.25333 4.444l-14.984 56.128c-0.76267 2.9213-2.9227 4.3187-6.604 4.3187h-12.445c-3.8093 0-6.0947-1.3973-6.7307-4.3187l-4.064-17.016c-1.1413-5.0813-1.904-11.047-2.2853-18.031h-0.88933c-0.63333 6.984-1.5227 12.949-2.6653 18.031l-4.1907 17.016c-0.76133 2.9213-2.9213 4.3187-6.6027 4.3187h-11.557c-3.6813 0-5.8413-1.3973-6.7293-4.3187l-15.112-56.128c-0.63467-2.1587-0.76133-3.6813-0.25333-4.444 0.63467-0.76133 2.032-1.1427 4.3173-1.1427h11.936c2.9213 0 4.9533 0.25333 5.968 0.888 1.144 0.63467 1.7787 1.9053 2.16 3.936l3.048 16.892c0.76133 4.4427 1.2693 11.047 1.5227 19.809h1.016c0.38133-8.7627 1.1427-15.367 2.032-19.809l3.8093-16.764c0.38133-2.0333 1.0173-3.4293 2.1587-4.064 1.016-0.63467 3.048-0.888 5.968-0.888h8.128c2.9213 0 4.8253 0.25333 5.8413 0.888s1.7773 1.9053 2.1587 3.936l3.9373 16.892c1.016 4.696 1.6507 11.301 2.0307 19.809h1.0173c0.12667-8.2573 0.63467-14.857 1.5227-19.809l3.048-16.764c0.38133-2.0333 1.016-3.4293 2.032-4.064 1.0147-0.63467 3.048-0.888 5.968-0.888z" clip-path="url(#e)"/>
		<path transform="translate(-1)" d="m171.46 50c3.1747 0 4.8253 1.652 4.8253 4.8253v21.715c3.048-0.38 5.9693-0.508 8.636-0.508 19.048 0 28.572 9.1427 28.572 27.428v35.685c0 3.172-1.6507 4.8253-4.8253 4.8253h-13.969c-3.1747 0-4.8253-1.6533-4.8253-4.8253v-34.796c0-4.696-2.5387-6.9827-7.6187-6.9827-2.668 0-4.572 0.12667-5.9693 0.50667v41.272c0 3.172-1.6507 4.8253-4.8253 4.8253h-13.968c-3.1747 0-4.8253-1.6533-4.8253-4.8253v-84.32c0-3.1733 1.6507-4.8253 4.8253-4.8253z" clip-path="url(#n)"/>
		<path transform="translate(-1)" d="m257.43 119.71c-1.1427-0.12533-3.3013-0.12533-6.7307-0.12533-4.444 0-6.7307 1.6493-6.7307 5.0773 0 3.4307 2.16 5.0813 6.476 5.0813 2.9213 0 5.0813-0.128 6.3507-0.38 0.38 0 0.63467-0.25466 0.63467-0.636zm-5.968-43.683c19.683 0 29.587 9.1427 29.587 27.428v31.24c0 3.812-1.6493 6.3493-4.824 7.6187-5.588 2.4147-13.969 3.5547-25.144 3.5547-11.556 0-19.556-1.7747-24-5.2027-4.192-3.1773-6.2227-8.3827-6.2227-15.876 0-7.9987 2.412-13.588 7.2373-16.76 4.572-2.9227 12.445-4.4467 23.62-4.4467l5.7147 0.128v-3.1747c0-4.3187-2.412-6.4773-7.112-6.4773-3.428 0-6.0947 1.3987-8.2533 4.3187-1.6507 2.284-4.064 2.7933-6.9853 1.6493l-9.1427-3.8093c-3.428-1.5213-4.316-3.808-2.6667-6.9827 4.572-8.7627 13.969-13.208 28.192-13.208" clip-path="url(#d)"/>
		<path transform="translate(-1)" d="m314.44 139.15c0 3.172-1.6507 4.824-4.8253 4.824h-13.968c-3.1747 0-4.8253-1.652-4.8253-4.824v-84.321c0-3.172 1.6507-4.824 4.8253-4.824h13.968c3.1747 0 4.8253 1.652 4.8253 4.824z" clip-path="url(#f)"/>
		<path transform="translate(-1)" d="m363.21 100.42c0-5.08-2.6667-7.62-8.1267-7.62-5.4613 0-8.128 2.54-8.128 7.62v1.648h16.255zm-39.873 4.952c0-9.5253 2.6667-16.765 8.1267-21.843 5.46-4.9533 13.333-7.4933 23.62-7.4933 10.539 0 18.54 2.6653 24.127 8.1293 5.2067 4.9533 7.7453 11.553 7.7453 19.683v6.984c0 4.444-2.2853 6.6027-6.9827 6.6027h-33.017v2.412c0 5.4613 2.7933 8.2547 8.2547 8.2547 4.3173 0 7.7453-1.524 10.159-4.6987 1.6507-2.2867 3.936-2.6653 7.1107-1.2693l8.7627 3.8093c3.428 1.6507 4.1907 4.064 2.412 7.3653-4.8253 8.38-14.349 12.571-28.697 12.571-10.795 0-18.921-2.7933-24.383-8.3813-4.8253-5.08-7.2373-12.064-7.2373-20.951z" clip-path="url(#c)"/>
		<path transform="translate(-1)" d="m432.03 102.83c0-4.1907-2.412-6.3493-7.2387-6.3493-1.5227 0-3.6813 0.256-6.3493 0.89067v26.665c0 0.384 0.12667 0.50933 0.25333 0.63466 1.144 0.384 3.048 0.63734 5.4613 0.63734 5.2067 0 7.8733-2.2853 7.8733-6.9867zm-18.54-52.697c3.3013 0 4.952 1.6493 4.952 4.824v21.841c3.556-0.50667 6.476-0.76133 8.636-0.76133 19.048 0 28.572 9.1427 28.572 27.303v13.713c0 19.176-10.287 28.825-30.985 28.825-10.032 0-18.287-1.396-25.016-4.316-2.16-1.0147-3.428-2.0333-4.064-2.9213-0.63467-0.888-0.88934-2.412-0.88934-4.5707v-79.113c0-3.1747 1.652-4.824 4.9533-4.824z" clip-path="url(#b)"/>
		<path transform="translate(-1)" d="m502.25 103.21c0-4.5733-2.6653-6.8587-7.9987-6.8587-5.2067 0-7.8747 2.2853-7.8747 6.8587v15.492c0 4.444 2.668 6.728 7.8747 6.728 5.3333 0 7.9987-2.284 7.9987-6.728zm-39.492 0.63467c0-8.764 2.6653-15.492 7.9987-20.445 5.4613-4.952 13.336-7.3667 23.495-7.3667 10.285 0 18.157 2.4147 23.619 7.3667 5.2053 4.8253 7.8733 11.681 7.8733 20.445v14.223c0 8.76-2.668 15.617-7.8733 20.317-5.4613 4.952-13.333 7.4907-23.619 7.4907-10.159 0-18.033-2.5387-23.495-7.4907-5.3333-4.8253-7.9987-11.557-7.9987-20.317z" clip-path="url(#x)"/>
		<path transform="translate(-1)" d="m566.63 76.032c19.048 0 28.572 9.1427 28.572 27.428v35.685c0 3.1733-1.6507 4.8253-4.8253 4.8253h-13.967c-3.1747 0-4.828-1.652-4.828-4.8253v-34.795c0-4.6973-2.5373-6.984-7.6173-6.984-2.2867 0-4.1907 0.128-5.588 0.50667-0.25467 0.128-0.38 0.256-0.38 0.50933v40.763c0 3.1733-1.6533 4.8253-4.828 4.8253h-13.967c-3.1747 0-4.8253-1.652-4.8253-4.8253v-50.793c0-3.684 1.7787-6.224 5.2053-7.6213 8.128-3.1747 17.143-4.6987 27.048-4.6987" clip-path="url(#w)"/>
		<path transform="translate(-1)" d="m643.21 100.42c0-5.08-2.6653-7.62-8.1267-7.62-5.46 0-8.128 2.54-8.128 7.62v1.648h16.255zm-39.873 4.952c0-9.5253 2.668-16.765 8.1267-21.843 5.4613-4.9533 13.336-7.4933 23.62-7.4933 10.541 0 18.54 2.6653 24.128 8.1293 5.2053 4.9533 7.7453 11.553 7.7453 19.683v6.984c0 4.444-2.284 6.6027-6.984 6.6027h-33.017v2.412c0 5.4613 2.796 8.2547 8.2547 8.2547 4.3187 0 7.7467-1.524 10.159-4.6987 1.6533-2.2867 3.9373-2.6653 7.112-1.2693l8.7613 3.8093c3.4307 1.6507 4.1933 4.064 2.4147 7.3653-4.8267 8.38-14.351 12.571-28.7 12.571-10.795 0-18.921-2.7933-24.381-8.3813-4.8267-5.08-7.2387-12.064-7.2387-20.951z" clip-path="url(#v)"/>
	</g>
</svg>
